<?xml version="1.0" standalone="no"?>
<!DOCTYPE svg PUBLIC "-//W3C//DTD SVG 20010904//EN"
 "http://www.w3.org/TR/2001/REC-SVG-20010904/DTD/svg10.dtd">
<svg version="1.0" xmlns="http://www.w3.org/2000/svg"
 width="1121.000000pt" height="1280.000000pt" viewBox="0 0 1121.000000 1280.000000"
 preserveAspectRatio="xMidYMid meet">
<metadata>
Created by potrace 1.15, written by Peter Selinger 2001-2017
</metadata>
<g transform="translate(0.000000,1280.000000) scale(0.100000,-0.100000)"
fill="currentColor" stroke="none">
<path d="M3410 12578 c-101 -28 -162 -132 -139 -237 9 -45 25 -66 121 -174
144 -158 225 -268 286 -386 86 -166 130 -318 151 -521 5 -52 15 -725 20 -1495
6 -770 13 -1493 16 -1607 l6 -206 -1631 -2441 c-897 -1343 -1657 -2489 -1690
-2547 -298 -536 -406 -1115 -300 -1606 97 -447 366 -795 765 -988 110 -53 260
-104 369 -125 190 -36 219 -36 4271 -33 l3970 3 110 22 c371 75 626 199 850
415 277 265 415 604 415 1010 -1 470 -195 978 -565 1478 -35 47 -755 1145
-1601 2440 l-1539 2355 -3 70 c-16 451 -55 2390 -56 2785 -1 456 1 526 17 610
57 302 170 515 421 788 94 102 110 138 104 218 -6 69 -46 128 -107 161 l-44
23 -2091 -1 c-1354 0 -2103 -4 -2126 -11z m3683 -505 c-78 -126 -160 -296
-196 -405 -63 -190 -82 -350 -82 -718 l0 -295 -105 2 -105 2 3 408 c4 424 9
510 43 640 24 93 93 239 144 306 20 26 30 47 23 47 -6 0 -53 -23 -102 -51
-231 -131 -352 -265 -411 -453 -34 -107 -45 -187 -45 -347 0 -75 -3 -230 -6
-345 l-7 -209 -170 3 c-188 3 -258 -7 -307 -43 -97 -72 -114 -207 -38 -299 56
-69 85 -76 316 -76 l202 0 -2 -482 c-2 -266 -4 -619 -6 -785 l-3 -303 -182 0
c-100 0 -200 -5 -222 -11 -169 -46 -203 -271 -57 -374 l44 -30 209 -3 210 -3
-3 -387 c-3 -412 -1 -441 47 -607 43 -148 93 -272 184 -461 l88 -180 -27 -16
c-44 -25 -81 -97 -81 -160 -2 -139 87 -217 251 -218 l85 0 100 -162 c55 -89
178 -279 273 -422 l173 -259 -718 6 c-395 4 -1076 7 -1514 7 l-797 0 158 263
c434 722 666 1215 747 1587 16 77 18 132 16 580 -1 477 -14 1531 -33 2840 -8
528 -12 634 -26 680 -46 158 -178 298 -418 445 -114 70 -385 209 -393 202 -2
-3 11 -27 30 -54 64 -88 115 -203 148 -328 30 -118 37 -447 48 -2318 l10
-1608 -703 -1137 -703 -1137 -260 -3 -260 -2 795 1192 c437 655 801 1207 809
1227 15 35 13 451 -11 3006 -4 431 -13 543 -58 725 -40 162 -122 345 -235 519
l-62 96 697 5 c383 3 1117 6 1629 8 l933 2 -67 -107z m-263 -1980 c0 -82 5
-287 10 -458 5 -170 12 -457 16 -637 l7 -328 -138 0 -138 0 6 503 c4 276 7
629 7 785 l0 282 115 0 115 0 0 -147z m44 -1889 c3 -26 6 -113 6 -194 0 -94 5
-163 13 -191 11 -33 610 -969 739 -1152 l20 -27 -194 2 -193 3 -287 465 c-159
256 -313 506 -344 557 l-56 92 7 245 8 246 137 0 137 0 7 -46z m1256 -2300
c124 -191 251 -386 283 -435 l57 -89 -212 0 -213 1 -257 417 -257 417 162 5
c101 3 170 10 182 17 11 7 22 12 25 13 3 0 106 -156 230 -346z m-7000 -5140
c0 -2 -9 0 -20 6 -11 6 -20 13 -20 16 0 2 9 0 20 -6 11 -6 20 -13 20 -16z
m120 -54 c8 -5 11 -10 5 -10 -5 0 -17 5 -25 10 -8 5 -10 10 -5 10 6 0 17 -5
25 -10z"/>
</g>
</svg>
